# xmcd
#
# Track frame offsets:
#	150
#	28418
#	60262
#	101252
#	107908
#
# Disc length: 1863 seconds
#
# Revision: 0
# Processed by: cddbd v1.5.2PL0 Copyright (c) Steve Scherf et al.
# Submitted via: EasyCDDAExtractor 10.0.2.1
#
DISCID=38074505
DTITLE=Peter Green and Kolors - Live in Frankfurt, Sinkkasten [CD2]
DYEAR=1984
DGENRE=Blues
TTITLE0=Albatross
TTITLE1=Stay Out
TTITLE2=Green Manalishi
TTITLE3=Applause
TTITLE4=Need Your Love So Bad
EXTD=
EXTT0=
EXTT1=
EXTT2=
EXTT3=
EXTT4=
PLAYORDER=
